<?xml version="1.0" encoding="UTF-8"?>
<!DOCTYPE svg PUBLIC "-//W3C//DTD SVG 1.1//EN" "http://www.w3.org/Graphics/SVG/1.1/DTD/svg11.dtd">
<!-- Creator: CorelDRAW X8 -->
<svg xmlns="http://www.w3.org/2000/svg" xml:space="preserve" width="25.4377mm" height="29.5457mm" version="1.1" style="shape-rendering:geometricPrecision; text-rendering:geometricPrecision; image-rendering:optimizeQuality; fill-rule:evenodd; clip-rule:evenodd"
viewBox="0 0 6242 7251"
 xmlns:xlink="http://www.w3.org/1999/xlink">
 <defs>
  <style type="text/css">
   <![CDATA[
    .str0 {stroke:#E6E6E6;stroke-width:18.6995}
    .fil1 {fill:#0098DA}
    .fil0 {fill:white}
   ]]>
  </style>
 </defs>
 <g id="Camada_x0020_1">
  <metadata id="CorelCorpID_0Corel-Layer"/>
  <g id="_1940326733920">
   <path class="fil0 str0" d="M6233 1558c0,-302 -247,-550 -550,-550l-4125 0c-302,0 -550,248 -550,550l0 5133c0,303 248,550 550,550l3116 0 1559 -1466 0 -4217z"/>
   <path class="fil1" d="M1008 1558c0,-302 248,-550 550,-550l3667 0 0 -458c0,-303 -248,-550 -550,-550l-4125 0c-303,0 -550,247 -550,550l0 5133c0,302 247,550 550,550l458 0 0 -4675z"/>
   <path class="fil1" d="M5224 5775l1009 0 -1559 1466 0 -916c0,-303 248,-550 550,-550z"/>
   <path class="fil1" d="M2383 3437l2475 0c76,0 137,-61 137,-137 0,-76 -61,-138 -137,-138l-2475 0c-76,0 -137,62 -137,138 0,76 61,137 137,137z"/>
   <path class="fil1" d="M2383 2521l2475 0c76,0 137,-62 137,-138 0,-76 -61,-137 -137,-137l-2475 0c-76,0 -137,61 -137,137 0,76 61,138 137,138z"/>
   <path class="fil1" d="M2383 4354l2475 0c76,0 137,-62 137,-138 0,-76 -61,-137 -137,-137l-2475 0c-76,0 -137,61 -137,137 0,76 61,138 137,138z"/>
   <path class="fil1" d="M2383 5270l1375 0c76,0 138,-61 138,-137 0,-76 -62,-138 -138,-138l-1375 0c-76,0 -137,62 -137,138 0,76 61,137 137,137z"/>
  </g>
 </g>
</svg>
