<?xml version="1.0" encoding="UTF-8"?>
<!DOCTYPE svg PUBLIC "-//W3C//DTD SVG 1.1//EN" "http://www.w3.org/Graphics/SVG/1.1/DTD/svg11.dtd">
<!-- Creator: CorelDRAW X8 -->
<svg xmlns="http://www.w3.org/2000/svg" xml:space="preserve" width="25.4mm" height="21.7311mm" version="1.1" style="shape-rendering:geometricPrecision; text-rendering:geometricPrecision; image-rendering:optimizeQuality; fill-rule:evenodd; clip-rule:evenodd"
viewBox="0 0 6224 5325"
 xmlns:xlink="http://www.w3.org/1999/xlink">
 <defs>
  <style type="text/css">
   <![CDATA[
    .fil1 {fill:#C5CED3}
    .fil0 {fill:#F2F2F2}
    .fil2 {fill:#FEB100}
   ]]>
  </style>
 </defs>
 <g id="Camada_x0020_1">
  <metadata id="CorelCorpID_0Corel-Layer"/>
  <g id="_1940483511232">
   <path class="fil0" d="M1521 1867c0,228 187,415 415,415l2352 0c228,0 415,-187 415,-415l0 -1245 -3182 0 0 1245z"/>
   <path class="fil0" d="M3320 4910c0,228 186,415 415,415l2074 0c228,0 415,-187 415,-415l0 -1245 -2904 0 0 1245z"/>
   <path class="fil1" d="M4495 1867c0,115 -93,208 -207,208l-2352 0c-114,0 -207,-93 -207,-208l0 -1245 -208 0 0 1245c0,228 187,415 415,415l2352 0c228,0 415,-187 415,-415l0 -1245 -208 0 0 1245z"/>
   <path class="fil1" d="M6017 4910c0,115 -93,208 -208,208l-2074 0c-115,0 -208,-93 -208,-208l0 -1245 -207 0 0 1245c0,228 186,415 415,415l2074 0c228,0 415,-187 415,-415l0 -1245 -207 0 0 1245z"/>
   <path class="fil0" d="M0 4910c0,228 187,415 415,415l2075 0c228,0 415,-187 415,-415l0 -1245 -2905 0 0 1245z"/>
   <path class="fil1" d="M2697 4910c0,115 -93,208 -207,208l-2075 0c-114,0 -208,-93 -208,-208l0 -1245 -207 0 0 1245c0,228 187,415 415,415l2075 0c228,0 415,-187 415,-415l0 -1245 -208 0 0 1245z"/>
   <rect class="fil2" x="1521" width="3181" height="622"/>
   <path class="fil1" d="M4703 2593l-1487 0 0 -311 -208 0 0 311 -1487 0c-95,1 -172,78 -172,173l0 346 207 0 0 -311 3112 0 0 311 208 0 0 -346c-1,-96 -78,-172 -173,-173z"/>
   <rect class="fil2" x="3320" y="3112" width="2905" height="553"/>
   <rect class="fil2" y="3112" width="2905" height="553"/>
  </g>
 </g>
</svg>
